<svg
  width="30px"
  height="30px"
  viewBox="0 0 30 30"
  version="1.1"
  xmlns="http://www.w3.org/2000/svg"
  xmlns:xlink="http://www.w3.org/1999/xlink"
>
    <g  stroke="none" stroke-width="1" fill="none" fill-rule="evenodd">
        <g >
            <g  transform="translate(1.000000, 1.000000)">
                <circle  stroke="#BCBABA" stroke-width="0.6" cx="14" cy="14" r="14"/>
                <g  transform="translate(5.000000, 4.000000)" fill-rule="nonzero">
                    <rect fill="#535353" opacity="0" x="0" y="0" width="18" height="18"/>
                    <path d="M15.5076977,3.54483027 L13.4309952,3.54483027 C13.4187982,2.78776671 12.7436268,2.17349329 11.9088371,2.15914937 C11.8272011,1.45256537 11.1658208,0.9 10.3646133,0.9 L8.46612013,0.9 C7.66494845,0.9 7.00355018,1.45256537 6.92191421,2.15914937 C6.0871962,2.17355819 5.41193522,2.78781539 5.39975609,3.54483027 L3.32307155,3.54483027 C2.48190577,3.54483027 1.8,4.16260855 1.8,4.92468599 L1.8,16.1355289 C1.8,16.8976063 2.48190577,17.5153846 3.32307155,17.5153846 L15.5076977,17.5153846 C16.3488455,17.5153846 17.0307692,16.8976063 17.0307692,16.1355289 L17.0307692,4.92468599 C17.0307692,4.16260855 16.3488455,3.54483027 15.5076977,3.54483027 Z M6.47379395,4.51838315 L6.47379395,3.56556729 C6.47379395,3.55860628 6.47400888,3.55171016 6.47436709,3.54483027 C6.4863492,3.31560343 6.69593766,3.13244263 6.95187844,3.13244263 L7.450757,3.13244263 C7.74747995,3.13244263 7.98805355,2.91450918 7.98805355,2.64565808 L7.98805355,2.30669377 C7.98805355,2.06786104 8.20253157,1.8735691 8.46612013,1.8735691 L10.3646133,1.8735691 C10.6282377,1.8735691 10.8426978,2.06787727 10.8426978,2.30669377 L10.8426978,2.6456743 C10.8426978,2.91450918 11.0832714,3.13245885 11.3800122,3.13245885 L11.8788908,3.13245885 C12.1348316,3.13245885 12.3443842,3.31561965 12.3563842,3.5448465 C12.3567424,3.55172639 12.3569574,3.5586225 12.3569574,3.56558352 L12.3569574,4.68564232 C12.3569574,4.92445882 12.1424973,5.11875076 11.8788908,5.11875076 L6.95187844,5.11875076 C6.68825406,5.11875076 6.47379395,4.92445882 6.47379395,4.68564232 L6.47379395,4.51838315 Z M15.9561403,16.1355289 C15.9561403,16.3595472 15.7549877,16.5418155 15.5076977,16.5418155 L3.32307155,16.5418155 C3.07578153,16.5418155 2.874611,16.3595472 2.874611,16.1355289 L2.874611,4.92468599 C2.874611,4.70065151 3.07578153,4.51838315 3.32307155,4.51838315 L5.39918296,4.51838315 L5.39918296,4.68562609 C5.39918296,5.4612686 6.09572159,6.09228741 6.95187844,6.09228741 L11.8788908,6.09228741 C12.7350655,6.09228741 13.4315684,5.4612686 13.4315684,4.68562609 L13.4315684,4.51838315 L15.5076977,4.51838315 C15.7549877,4.51838315 15.9561403,4.70065151 15.9561403,4.92468599 L15.9561403,16.1355289 L15.9561403,16.1355289 Z M13.3263443,8.43925422 L10.3817536,11.1704887 L9.1030885,9.61686717 L9.10144074,9.61485513 L9.09662282,9.60901372 C9.09510042,9.60716394 9.09345266,9.60541151 9.09189445,9.60357796 C9.08689742,9.59765541 9.08186458,9.59174909 9.07661681,9.58595636 C9.07290934,9.58185114 9.06911232,9.57789196 9.06531529,9.5738841 C9.06160782,9.56998982 9.05793618,9.56607932 9.05412124,9.56223372 C9.04847944,9.55655457 9.04271227,9.55107013 9.03690927,9.54563437 C9.03520777,9.54402798 9.03361374,9.54238914 9.03189433,9.54079898 L9.03006747,9.53920881 C9.02301206,9.532789 9.01580439,9.52650801 9.00844951,9.52037025 C9.00701668,9.51916952 9.00563757,9.51793633 9.00420473,9.51675182 C8.99654228,9.51043957 8.9887254,9.50428292 8.98075991,9.49828646 C8.97941662,9.49726421 8.97810916,9.49622574 8.97676587,9.49521972 C8.96917521,9.48958814 8.96145407,9.48410248 8.95360762,9.4787664 C8.95174493,9.47748453 8.94988224,9.47613776 8.94800164,9.47487212 C8.94099971,9.47022433 8.93390601,9.46569109 8.92672399,9.46127461 C8.92385831,9.45948973 8.92102845,9.45763995 8.91814486,9.45590375 C8.91216276,9.45231777 8.9060732,9.44891028 8.90000155,9.44548656 C8.89581049,9.44311754 8.89165526,9.44069985 8.88741048,9.43841196 C8.88273584,9.43591313 8.87798956,9.43356034 8.8732612,9.43117509 C8.86751193,9.42823816 8.86176267,9.42526878 8.85594176,9.4224941 C8.85277161,9.42098507 8.84954772,9.41958962 8.84635965,9.41812927 C8.8389268,9.41470555 8.83147604,9.41131429 8.82395364,9.40815019 C8.82230588,9.40746869 8.8206402,9.40685209 8.81899244,9.4061706 C8.8099169,9.40240856 8.80075673,9.39881641 8.79151776,9.39539643 L8.79085507,9.39516926 C8.73789653,9.37578848 8.68256431,9.36222943 8.62604282,9.35478237 C8.62450252,9.35457143 8.62296221,9.35444162 8.62142191,9.35424691 C8.61181079,9.35301447 8.60217295,9.35195955 8.5925144,9.35108281 C8.58878902,9.35074206 8.58504572,9.3505798 8.58132034,9.35028773 C8.57385167,9.34973604 8.56636509,9.3491519 8.55887851,9.34879492 C8.55284268,9.34850285 8.54678894,9.34845417 8.5407531,9.34830814 C8.53554115,9.34817833 8.5303292,9.34796739 8.52509934,9.34795116 C8.51711127,9.34791871 8.50910528,9.34814588 8.5010993,9.34834059 C8.49780377,9.34842172 8.49452615,9.3484055 8.49123062,9.3485353 C8.48188135,9.34889228 8.47254999,9.3495251 8.46320072,9.35022282 C8.46121265,9.35036886 8.4592425,9.35044999 8.45725444,9.35059603 C8.4472783,9.35140733 8.43732007,9.35247826 8.42737975,9.35366277 C8.42598274,9.35384126 8.42460363,9.35395484 8.42322452,9.3541171 C8.41342749,9.35533406 8.40366628,9.35682687 8.39392297,9.35843326 C8.39231103,9.3587091 8.39068118,9.35890382 8.38906923,9.35917966 C8.37998862,9.36073737 8.37096174,9.36253847 8.36193485,9.36440448 C8.35960649,9.36487504 8.35726022,9.36529692 8.35493185,9.36579993 C8.34699751,9.36750368 8.3391169,9.36948327 8.33121838,9.37146286 C8.32776165,9.37232284 8.32428702,9.3731017 8.32084821,9.37401036 C8.31432879,9.37573033 8.30786311,9.37767747 8.30137951,9.37959216 C8.29654368,9.38100383 8.29170785,9.38233438 8.28688993,9.38385964 C8.281875,9.38543357 8.2769138,9.387186 8.27193468,9.38888974 C8.26568392,9.39099914 8.25943317,9.39305986 8.25323614,9.39533153 C8.24965404,9.39664584 8.24612568,9.39808997 8.24256149,9.39946919 C8.23502118,9.40235745 8.22749878,9.40527816 8.22003011,9.40842603 C8.21768383,9.40943205 8.21535547,9.4105192 8.2130092,9.41152523 C8.20444799,9.41524101 8.19594051,9.41905416 8.18750467,9.42307825 L8.18297332,9.42534991 C8.17383897,9.42979587 8.16477627,9.43442033 8.15582103,9.43923949 C8.15467476,9.43985609 8.1535464,9.44052136 8.15240013,9.44115418 C8.14324787,9.44615183 8.13420308,9.45132798 8.12524784,9.45673128 C8.12379709,9.4576075 8.12238216,9.45851616 8.12094932,9.4594086 C8.11256722,9.46455229 8.10425675,9.46985824 8.09607166,9.47534268 L8.09404778,9.47664077 C8.09211344,9.47795509 8.09028658,9.47936677 8.08835224,9.48069731 C8.08168954,9.48530554 8.07504476,9.48994622 8.06852534,9.49479784 C8.06404772,9.49810797 8.05973129,9.50151546 8.05539696,9.50490673 C8.05106262,9.50829799 8.04669246,9.51164058 8.04241186,9.51514543 C8.03610737,9.52027289 8.0300178,9.52556262 8.02396406,9.53085234 C8.02224466,9.53236138 8.02047152,9.53377305 8.01875211,9.53528208 L8.0134327,9.54003635 L8.01092523,9.54229178 L4.48838123,12.6955847 C4.20693592,12.9475282 4.20421352,13.3584879 4.48230957,13.6134495 C4.62245909,13.7419606 4.80715198,13.8063135 4.99195233,13.8063135 C5.17385119,13.8063135 5.3558575,13.743924 5.49546971,13.6189501 L8.44014993,10.9829631 L9.7330897,12.5539467 C9.74175837,12.5645099 9.75082107,12.5749109 9.76031363,12.5851009 C9.76269572,12.5876646 9.76518528,12.5900823 9.76760319,12.5926136 C9.77356739,12.5988282 9.77958531,12.6050104 9.78587189,12.6110627 C9.7906719,12.6157034 9.79556146,12.6201818 9.80046893,12.6246602 C9.80299431,12.6269643 9.80535849,12.6293496 9.8079376,12.6316213 C9.80951372,12.6330167 9.81116149,12.6342823 9.81275552,12.6356616 C9.82193675,12.6436585 9.8313613,12.651423 9.84101826,12.6589461 C9.84710782,12.6637166 9.8532153,12.6684384 9.85943024,12.6729817 C9.86324517,12.6757564 9.86713174,12.6784012 9.8709825,12.6810948 C9.87717952,12.6854434 9.88332282,12.6898082 9.88964522,12.6939297 C9.89566314,12.6978726 9.90180643,12.7015722 9.90793182,12.7053042 C9.91511392,12.7097015 9.92234976,12.7139852 9.92967514,12.7181229 C9.93730777,12.7224848 9.94503466,12.7267098 9.95285131,12.7307955 C9.95652296,12.732694 9.96026625,12.7344951 9.96399163,12.7363286 C9.97196179,12.740304 9.97998569,12.7441496 9.98808123,12.747833 C10.0002504,12.7533312 10.0125898,12.7585149 10.0250843,12.7633776 C10.0278425,12.7644485 10.0306186,12.7655519 10.0333947,12.7665904 C10.0440336,12.7705982 10.054744,12.7743627 10.065562,12.7778838 L10.0691799,12.7791007 C10.0944158,12.7871814 10.1200277,12.7939477 10.1459263,12.7993997 C10.1472696,12.7996917 10.1486129,12.7999027 10.1499741,12.8001947 C10.1641704,12.8030999 10.1784641,12.8056 10.1928339,12.8076912 C10.2020936,12.8090704 10.2113533,12.810255 10.2206488,12.8113097 C10.2246608,12.8117478 10.2286369,12.8122021 10.2326489,12.8125915 C10.2413713,12.8134191 10.2501116,12.8140681 10.2588698,12.8146198 C10.2630788,12.8148956 10.2672877,12.8152202 10.2715146,12.8154311 C10.2814907,12.8158854 10.2914669,12.8161126 10.3014609,12.81621 C10.3040221,12.8162262 10.3065654,12.8164047 10.3091266,12.8164047 C10.3203923,12.8164047 10.331658,12.8160801 10.3429058,12.8155934 L10.3446073,12.8155122 C10.3553177,12.8150254 10.3659924,12.8143115 10.3766849,12.8133866 L10.379873,12.8130945 C10.3908393,12.8121143 10.4017794,12.8109079 10.412685,12.8094761 L10.4130611,12.8094274 C10.4361275,12.8063721 10.4590147,12.8022945 10.4816404,12.7972091 L10.4816583,12.7971929 C10.4941222,12.7943794 10.5064971,12.791252 10.5187688,12.7878142 C10.5272942,12.7854452 10.5357838,12.7829139 10.5442375,12.7802528 C10.5467629,12.7794577 10.5492704,12.7786789 10.5517778,12.7778676 C10.5600993,12.7751421 10.5683635,12.772275 10.5765659,12.7692677 C10.5787868,12.7684564 10.5810256,12.76771 10.5832286,12.7668987 C10.5927919,12.7632915 10.6022687,12.7594991 10.6116526,12.7555241 C10.61656,12.7534472 10.6213959,12.751208 10.6262496,12.7490337 C10.630781,12.7470054 10.6353123,12.7449934 10.6397899,12.7428677 C10.6455034,12.740158 10.651181,12.7373346 10.6568228,12.7344788 C10.6664314,12.7296738 10.6759032,12.7246474 10.6852288,12.7194047 C10.6878796,12.7179119 10.6905303,12.7163542 10.6931811,12.714829 C10.722822,12.6977004 10.7510243,12.6786097 10.7775574,12.6577129 C10.7933186,12.645381 10.8084529,12.6325948 10.8227276,12.6192894 L14.3514507,9.34627987 C14.6279169,9.08985799 14.6225796,8.6789307 14.3395223,8.42846383 C14.0563934,8.17801317 13.6028284,8.18283234 13.3263443,8.43925422 L13.3263443,8.43925422 Z" id="形状" fill="#686868"/>
                </g>
            </g>
            <g />
        </g>
    </g>
</svg>