<svg width="30px" height="30px" viewBox="0 0 30 30" version="1.1" xmlns="http://www.w3.org/2000/svg" xmlns:xlink="http://www.w3.org/1999/xlink">
    <!-- Generator: Sketch 60.1 (88133) - https://sketch.com -->
    <title>通知公告</title>
    <desc>Created with Sketch.</desc>
    <g id="页面-1" stroke="none" stroke-width="1" fill="none" fill-rule="evenodd">
        <g id="个人模块" transform="translate(0.000000, -104.000000)">
            <circle id="椭圆形备份-2" stroke="#BCBABA" stroke-width="0.6" cx="15" cy="119" r="14"/>
            <g id="公告" transform="translate(5.000000, 107.000000)" fill-rule="nonzero">
                <rect id="矩形" fill="#19547B" opacity="0" x="0" y="0" width="20" height="20"/>
                <path d="M9.95410156,2 C11.1453711,2 12.1110742,2.96539063 12.1110742,4.15625 C12.1110742,4.20736328 12.1093164,4.25804688 12.1058008,4.30828125 C12.1194727,4.31683594 12.1329883,4.32605469 12.1462109,4.3359375 L16.3557812,7.48046875 L17.099082,7.48048828 C17.9677148,7.48048828 18.671875,8.18441406 18.671875,9.05275391 L18.671875,18.3965039 C18.671875,19.2648438 17.9677148,19.9687695 17.099082,19.9687695 L2.76419922,19.9687695 C1.89556641,19.9687695 1.19140625,19.2648242 1.19140625,18.3964844 L1.19140625,9.05273438 C1.19140625,8.18439453 1.89556641,7.48046875 2.76419922,7.48046875 L3.82203125,7.48044922 L7.82308594,4.49171875 C7.80760127,4.39249846 7.79902595,4.29232257 7.79742187,4.19191406 L7.79712891,4.15625 C7.79712891,2.96539063 8.76285156,2 9.95410156,2 Z M17.099082,8.6484375 L2.76419922,8.6484375 C2.54482422,8.6484375 2.36625,8.82304688 2.35994141,9.04082031 L2.35976562,9.05273438 L2.35976562,18.3964844 C2.35976562,18.6157813 2.53443359,18.7942969 2.75226562,18.8006055 L2.76419922,18.8007813 L17.099082,18.8007813 C17.318457,18.8007813 17.4970312,18.6261719 17.5033398,18.4083984 L17.5035156,18.3964844 L17.5035156,9.05273438 C17.5035156,8.8334375 17.3288477,8.65492188 17.1110156,8.64861328 L17.099082,8.6484375 Z M15.0016211,14.7802734 C15.3242578,14.7802734 15.5858008,15.0417383 15.5858008,15.3642578 C15.5858008,15.682168 15.3316797,15.9407617 15.0154102,15.9480859 L15.0016211,15.9482422 L4.83130859,15.9482422 C4.50865234,15.9482422 4.24712891,15.6867773 4.24712891,15.3642578 C4.24712891,15.0463477 4.50123047,14.7877539 4.8175,14.7804297 L4.83128906,14.7802734 L15.0016211,14.7802734 Z M10.234668,11.4560547 C10.5573242,11.4560547 10.8188477,11.7175195 10.8188477,12.0400391 C10.8188477,12.3579492 10.5647461,12.616543 10.248457,12.6238672 L10.234668,12.6240234 L4.83128906,12.6240234 C4.50867187,12.6240234 4.24710937,12.3625586 4.24710937,12.0400391 C4.24710937,11.7221289 4.50125,11.4635352 4.8175,11.4562109 L4.83128906,11.4560547 L10.234668,11.4560547 Z M11.6819727,5.44716797 C11.2885742,5.9725 10.6610742,6.3125 9.95410156,6.3125 C9.30521484,6.3125 8.72324219,6.02605469 8.3278125,5.57275391 L5.77390625,7.48044922 L14.4039258,7.48044922 L11.6819727,5.44716797 Z M9.95410156,3.16796875 C9.40810547,3.16796875 8.96548828,3.61042969 8.96548828,4.15625 C8.96548828,4.70207031 9.40810547,5.14453125 9.95410156,5.14453125 C10.5000977,5.14453125 10.9427148,4.70207031 10.9427148,4.15625 C10.9427148,3.61042969 10.5000977,3.16796875 9.95410156,3.16796875 L9.95410156,3.16796875 Z" id="形状" fill="#686868"/>
            </g>
            <g id="编组-3"/>
        </g>
    </g>
</svg>