<svg width="30px" height="30px" viewBox="0 0 30 30" version="1.1" xmlns="http://www.w3.org/2000/svg" xmlns:xlink="http://www.w3.org/1999/xlink">
    <title>官方客服</title>
    <g id="页面-1" stroke="none" stroke-width="1" fill="none" fill-rule="evenodd">
        <circle id="椭圆形备份-7" stroke="#BCBABA" stroke-width="0.6" cx="15" cy="15" r="14"/>
        <g id="客服" transform="translate(6.000000, 6.000000)" fill-rule="nonzero">
            <rect id="矩形" fill="#000000" opacity="0" x="0" y="0" width="18" height="18"/>
            <path d="M9.01933594,1.59609375 C9.96503906,1.59609375 10.884375,1.76660156 11.7509766,2.10410156 C12.5894531,2.43105469 13.3435547,2.90039063 13.9904297,3.49628906 C14.6408203,4.09570312 15.1523437,4.7953125 15.5109375,5.57578125 C15.8835937,6.38613281 16.0716797,7.24921875 16.0716797,8.13691406 C16.0716797,9.51328125 15.6164062,10.8298828 14.7550781,11.9443359 C13.9166016,13.0253906 12.7634766,13.8357422 11.4205078,14.2875 C11.2482422,14.3455078 10.9248047,14.7146484 10.6875,14.9835938 C10.1917969,15.5513672 9.67851562,16.1367188 9.00175781,16.1367188 C8.31621094,16.1367188 7.8046875,15.5478516 7.3125,14.9783203 C7.07871094,14.7076172 6.75703125,14.3367187 6.58125,14.2769531 C5.2453125,13.8216797 4.10097656,13.0095703 3.27304687,11.9302734 C2.41875,10.8175781 1.96699219,9.50625 1.96699219,8.13691406 C1.96699219,7.24921875 2.15507812,6.38613281 2.52773437,5.57578125 C2.88632812,4.7953125 3.39609375,4.09570313 4.04824219,3.49628906 C4.69511719,2.89863281 5.44921875,2.43105469 6.28769531,2.10410156 C7.15253906,1.76660156 8.071875,1.59609375 9.01933594,1.59609375 Z M9.01757812,2.64902344 C5.71113281,2.64902344 3.02167969,5.10996094 3.02167969,8.13691406 C3.02167969,10.4167969 4.58964844,12.4822266 6.92226562,13.2802734 C7.36875,13.4332031 7.72910156,13.8480469 8.11054687,14.2892578 C8.30390625,14.5125 8.50429687,14.7445312 8.68886719,14.9027344 C8.88574219,15.0714844 8.97890625,15.0837891 9.00175781,15.0837891 C9.01757812,15.0837891 9.10898437,15.075 9.31289062,14.9027344 C9.49921875,14.7445312 9.69960937,14.5142578 9.89472656,14.2910156 C10.2779297,13.8533203 10.6417969,13.4384766 11.0847656,13.2890625 C13.4349609,12.4980469 15.0134766,10.4273438 15.0134766,8.13515625 C15.0134766,5.10996094 12.3240234,2.64902344 9.01757812,2.64902344 Z M11.9355469,7.59902344 C12.2273437,7.59902344 12.4628906,7.83457031 12.4628906,8.12636719 C12.4628906,10.0423828 10.9037109,11.6015625 8.98769531,11.6015625 C7.07167969,11.6015625 5.5125,10.0423828 5.5125,8.12636719 C5.5125,7.83457031 5.74804687,7.59902344 6.03984375,7.59902344 C6.33164062,7.59902344 6.5671875,7.83457031 6.5671875,8.12636719 C6.5671875,9.46054688 7.65351562,10.546875 8.98769531,10.546875 C10.321875,10.546875 11.4082031,9.46054688 11.4082031,8.12636719 C11.4082031,7.83457031 11.64375,7.59902344 11.9355469,7.59902344 Z" id="形状结合" fill="#686868"/>
        </g>
    </g>
</svg>