<svg width="30px" height="30px" viewBox="0 0 30 30" version="1.1" xmlns="http://www.w3.org/2000/svg" xmlns:xlink="http://www.w3.org/1999/xlink">
    <!-- Generator: Sketch 60.1 (88133) - https://sketch.com -->
    <title>账户明细</title>
    <desc>Created with Sketch.</desc>
    <g id="页面-1" stroke="none" stroke-width="1" fill="none" fill-rule="evenodd">
        <g id="个人模块" transform="translate(-177.000000, 0.000000)">
            <circle id="椭圆形备份-4" stroke="#BCBABA" stroke-width="0.6" cx="192" cy="15" r="14"/>
            <g id="账户信息" transform="translate(183.000000, 6.000000)" fill-rule="nonzero">
                <rect id="矩形" fill="#595959" opacity="0" x="0" y="0" width="18" height="18"/>
                <path d="M16.0888857,2.28997339 L1.90735481,2.28997339 C1.02269661,2.28997339 0.302968582,3.00970143 0.302968582,3.89435962 L0.302968582,13.72277 C0.302968582,14.6074462 1.02269661,15.3271562 1.90735481,15.3271562 L16.0888857,15.3271562 C16.9735619,15.3271562 17.693272,14.6074282 17.693272,13.72277 L17.693272,3.89435962 C17.693272,3.00968344 16.9735439,2.28997339 16.0888857,2.28997339 Z M1.90735481,3.45918067 L16.0888857,3.45918067 C16.328861,3.45918067 16.5240647,3.65440231 16.5240647,3.89435963 L16.5240647,5.29944098 L1.47217586,5.29944098 L1.47217586,3.89435963 C1.47217586,3.65440231 1.6673975,3.45918067 1.90735481,3.45918067 Z M16.0888857,14.1579489 L1.90735481,14.1579489 C1.6673975,14.1579489 1.47217586,13.9627093 1.47217586,13.72277 L1.47217586,6.29771015 L16.5240647,6.29771015 L16.5240647,13.72277 C16.5240647,13.9627273 16.328861,14.1579489 16.0888857,14.1579489 Z M14.967544,8.6449927 L11.7672438,8.6449927 C11.4453521,8.6449927 11.1819926,8.38163326 11.1819926,8.05974151 L11.1819926,8.05974151 C11.1819926,7.73784976 11.4453521,7.4744903 11.7672438,7.4744903 L14.967544,7.4744903 C15.2894358,7.4744903 15.5527952,7.73784974 15.5527952,8.05974149 L15.5527952,8.05974149 C15.5527952,8.38163326 15.2894358,8.6449927 14.967544,8.6449927 Z" id="形状" fill="#686868"/>
            </g>
            <g id="编组-3"/>
        </g>
    </g>
</svg>