<svg width="30px" height="30px" viewBox="0 0 30 30" version="1.1" xmlns="http://www.w3.org/2000/svg" xmlns:xlink="http://www.w3.org/1999/xlink">
    <!-- Generator: Sketch 60.1 (88133) - https://sketch.com -->
    <title>游戏记录</title>
    <desc>Created with Sketch.</desc>
    <g id="页面-1" stroke="none" stroke-width="1" fill="none" fill-rule="evenodd">
        <g id="个人模块" transform="translate(0.000000, -51.000000)">
            <circle id="椭圆形备份" stroke="#BCBABA" stroke-width="0.6" cx="15" cy="66" r="14"/>
            <g id="游戏" transform="translate(5.000000, 56.000000)" fill-rule="nonzero">
                <rect id="矩形" fill="#595959" opacity="0" x="0" y="0" width="20" height="20"/>
                <path d="M14.1666667,2.91666666 C16.9279167,2.91666666 19.1666667,5.15541666 19.1666667,7.91666666 L19.1666667,13.75 C19.1666667,14.9409461 18.531448,16.0414646 17.5000737,16.636964 C16.4686993,17.2324633 15.1979674,17.2324633 14.166593,16.636964 C13.1352186,16.0414646 12.4999088,14.9409461 12.5,13.75 L12.5,12.9166667 L7.49958334,12.9166667 L7.5,13.75 C7.50009116,14.9409461 6.86478136,16.0414646 5.833407,16.636964 C4.80203264,17.2324633 3.5313007,17.2324633 2.49992634,16.636964 C1.46855198,16.0414646 0.83333334,14.9409461 0.83333334,13.75 L0.83333334,7.91666666 C0.83333334,5.15541666 3.07208334,2.91666666 5.83333334,2.91666666 L14.1666667,2.91666666 Z M13.75,4.16666666 L6.25,4.16666666 C3.9875,4.16666666 2.14666666,5.96958332 2.085,8.21666666 L2.08333334,8.33333334 L2.08333334,13.75 C2.08479558,14.8819245 2.98978586,15.805582 4.12144465,15.8301512 C5.25310344,15.8547205 6.19732886,14.9712111 6.24791666,13.8404167 L6.25,13.75 L6.25,12.0833333 C6.24999999,11.9728265 6.29389868,11.8668457 6.37203883,11.7887055 C6.45017899,11.7105653 6.55615979,11.6666667 6.66666666,11.6666667 L13.3333333,11.6666667 C13.4438402,11.6666667 13.549821,11.7105653 13.6279612,11.7887055 C13.7061013,11.8668457 13.75,11.9728265 13.75,12.0833333 L13.75,13.75 C13.751462,14.8819247 14.6564524,15.8055824 15.7881113,15.8301517 C16.9197703,15.8547209 17.8639958,14.9712113 17.9145833,13.8404167 L17.9166667,13.75 L17.9166667,8.33333334 C17.9166667,6.03208334 16.05125,4.16666666 13.75,4.16666666 Z M13.9583333,9.16666666 C14.3035113,9.16666666 14.5833333,9.44648869 14.5833333,9.79166666 C14.5833333,10.1368446 14.3035113,10.4166667 13.9583333,10.4166667 C13.6131554,10.4166667 13.3333333,10.1368446 13.3333333,9.79166666 C13.3333333,9.44648869 13.6131554,9.16666666 13.9583333,9.16666666 Z M6.04166666,6.66666666 C6.38684463,6.66666666 6.66666666,6.94648869 6.66666666,7.29166666 L6.66666666,7.91666666 L7.29166666,7.91666666 C7.63684463,7.91666666 7.91666666,8.19648869 7.91666666,8.54166666 C7.91666666,8.88684463 7.63684463,9.16666666 7.29166666,9.16666666 L6.66666666,9.16666666 L6.66666666,9.79166666 C6.66666666,10.1368446 6.38684463,10.4166667 6.04166666,10.4166667 C5.69648869,10.4166667 5.41666666,10.1368446 5.41666666,9.79166666 L5.41666666,9.16666666 L4.79166666,9.16666666 C4.44648869,9.16666666 4.16666666,8.88684463 4.16666666,8.54166666 C4.16666666,8.19648869 4.44648869,7.91666666 4.79166666,7.91666666 L5.41666666,7.91666666 L5.41666666,7.29166666 C5.41666666,6.94648869 5.69648869,6.66666666 6.04166666,6.66666666 L6.04166666,6.66666666 Z M15.2083333,7.91666666 C15.5535113,7.91666666 15.8333333,8.19648869 15.8333333,8.54166666 C15.8333333,8.88684463 15.5535113,9.16666666 15.2083333,9.16666666 C14.8631554,9.16666666 14.5833333,8.88684463 14.5833333,8.54166666 C14.5833333,8.19648869 14.8631554,7.91666666 15.2083333,7.91666666 Z M12.7083333,7.91666666 C13.0535113,7.91666666 13.3333333,8.19648869 13.3333333,8.54166666 C13.3333333,8.88684463 13.0535113,9.16666666 12.7083333,9.16666666 C12.3631554,9.16666666 12.0833333,8.88684463 12.0833333,8.54166666 C12.0833333,8.19648869 12.3631554,7.91666666 12.7083333,7.91666666 Z M13.9583333,6.66666666 C14.3035113,6.66666666 14.5833333,6.94648869 14.5833333,7.29166666 C14.5833333,7.63684463 14.3035113,7.91666666 13.9583333,7.91666666 C13.6131554,7.91666666 13.3333333,7.63684463 13.3333333,7.29166666 C13.3333333,6.94648869 13.6131554,6.66666666 13.9583333,6.66666666 Z" id="形状" fill="#686868"/>
            </g>
            <g id="编组-3"/>
        </g>
    </g>
</svg>